<svg width="128" height="128" viewBox="0 0 128 128" fill="none" xmlns="http://www.w3.org/2000/svg">
<path d="M39.11 79.56C38.01 80.59 36.9 79.36 36.9 79.36C36.9 79.36 18.42 59.78 17.22 58.9C15.53 57.67 11.91 55.74 8.29 59.47C6.78 61.02 4.32 64.47 8.89 70.03C9.88 71.23 38.67 101.57 40.35 103.21C40.35 103.21 53.65 116.15 61.7 121.02C63.93 122.37 66.44 123.8 69.37 124.8C72.29 125.8 75.59 126.49 79.07 126.49C82.55 126.53 86.16 125.86 89.57 124.61C92.98 123.35 96.16 121.52 99.05 119.41C99.76 118.87 100.48 118.33 101.15 117.75L103.09 116.15C104.44 115.02 105.7 113.83 106.91 112.62C109.34 110.2 111.53 107.61 113.46 104.96C115.38 102.3 117.01 99.55 118.31 96.81C119.61 94.07 120.52 91.32 121.07 88.72C121.65 86.13 121.81 83.68 121.72 81.54C121.7 79.4 121.27 77.57 120.92 76.11C120.52 74.65 120.09 73.56 119.75 72.84C119.42 72.12 119.24 71.74 119.24 71.74C118.78 70.45 118.34 69.22 117.95 68.11C116.85 64.98 115.58 61.47 114.26 57.86C113.7 56.33 113.44 55.64 113.44 55.64L113.45 55.67C108.6 42.5 103.39 28.93 103.39 28.93C102.6 26.54 99.69 25.71 97.55 27.25C91.37 31.69 89.48 38.17 91.66 45.08L97.25 60.4C98.04 62.11 95.86 64.09 94.4 62.9C89.81 59.16 80.1 48.85 80.1 48.85C75.76 44.69 51.27 19.58 49.63 18.05C46.33 14.98 42.17 13.4 39 15.73C35.76 18.11 34.86 21.79 37.99 25.81C38.84 26.9 63.59 53.05 63.59 53.05C65.03 54.56 63.33 56.7 61.74 55.23C61.74 55.23 30.95 23.11 29.56 21.61C26.41 18.19 21.35 17.44 18.35 20.26C15.42 23.01 15.49 27.52 18.69 31.06C19.71 32.18 41.4 55.08 50.08 64.46C50.66 65.09 51.11 65.93 50.25 66.72C50.24 66.73 49.37 67.67 48.25 66.47C45.89 63.95 22.32 39.39 21.01 38.06C18 35 13.96 33.55 10.71 36.53C7.75 39.24 7.27 43.97 10.67 47.31L39.22 77.49C39.22 77.49 40.15 78.59 39.11 79.56Z" fill="#FF98D3"/>
<path d="M85.46 54.4L87.87 56.98C87.87 56.98 74.08 70.29 83.48 90.73C83.48 90.73 84.7 93.32 83.1 93.75C83.1 93.75 81.7 94.53 80.1 90.55C80.1 90.54 70.61 71.13 85.46 54.4Z" fill="#FFBEE3"/>
<path d="M62.28 9.2C62.28 9.2 68.09 10.08 73.47 15.84C78.85 21.61 81.34 29.02 81.34 29.02" stroke="#FBE882" stroke-width="4" stroke-miterlimit="10" stroke-linecap="round"/>
<path d="M76.44 2.5C76.44 2.5 81.31 4.95 85.07 11C88.83 17.05 89.74 24.05 89.74 24.05" stroke="#FBE882" stroke-width="4" stroke-miterlimit="10" stroke-linecap="round"/>
<path d="M29.71 115.73C29.71 115.73 23.85 116.12 17.36 111.64C10.87 107.16 6.84 100.46 6.84 100.46" stroke="#FBE882" stroke-width="4" stroke-miterlimit="10" stroke-linecap="round"/>
<path d="M25.53 125.56C25.53 125.56 20.09 125.79 13.85 122.34C7.61 118.89 3.41 113.22 3.41 113.22" stroke="#FBE882" stroke-width="4" stroke-miterlimit="10" stroke-linecap="round"/>
</svg>
