<svg height="18" viewBox="0 0 18 18" width="18" xmlns="http://www.w3.org/2000/svg"><path d="m91.2954666 15.3744488c-.0783207-.4635193-.4879168-2.7197366-1.4965603-5.48921157 2.4819192-.39684873 4.6315047.28361457 4.7902629.33546947-.3418593 2.1419248-1.5685306 3.9885943-3.2937026 5.1537421zm-4.2949374 1.3122465c-1.8606456 0-3.5667666-.6614146-4.89716-1.7620084.1016052.0825446.1725172.1343995.1725172.1343995s1.4732757-3.2128873 6.0317516-4.8013405c.0169342-.0063496.0349268-.0105826.051861-.0158739 1.0816723 2.8096889 1.5272535 5.1632665 1.6415594 5.8352636-.9218557.3915574-1.9368495.6095597-3.0005292.6095597zm-7.68707-7.68722443c0-.08148627.0042335-.16191428.0063503-.24234229.136532.00317479 3.9340272.08889411 7.8913389-1.09530249.2201446.43071315.4307638.86989241.6233903 1.30695514-.1016052.02751485-.202152.05820448-.3026989.09206891-4.1478215 1.33976126-6.2518962 5.07119756-6.2518962 5.07119756s.0031751.0031748.0031751.0042331c-1.2245546-1.3619848-1.9696595-3.1620907-1.9696595-5.13680993zm4.4071264-6.94961491c.1026637.13651596 1.5240784 2.06361338 2.8544717 4.42777353-3.690598.98101005-6.8943376.94185431-7.0964897.93867952.4985007-2.38109236 2.0977245-4.35475336 4.242018-5.36645305zm1.438349-.51219943c0 .00105827-.0010584.00211653-.0010584.00211653s-.0095255.00211653-.0232846.00423305c.0084671-.00211652.0158759-.00317479.024343-.00634958zm6.9176221 1.69533777c-.019051.02857311-1.1134239 1.69533776-4.015523 2.78217414-1.3134592-2.41389852-2.7571-4.33147157-2.8724643-4.48386148.5810549-.14074902 1.187511-.21694398 1.8119598-.21694398 1.9453166 0 3.7223496.72596861 5.0760275 1.91863132zm2.6078674 5.69028161c-.1111308-.02434005-2.7126478-.58416132-5.3533251-.25186666-.0550362-.13122464-.109014-.26350755-.1661669-.39579046-.1598166-.37674172-.3323338-.7492504-.5112013-1.11540949 3.035456-1.23922629 4.2674193-3.02028338 4.2822367-3.04144864 1.0774387 1.30907166 1.730464 2.98112763 1.7484566 4.80451525zm1.1335332-1.7344935c-.1185394-.57781175-.2963486-1.14821565-.5260187-1.69216297-.2243782-.53336469-.5048509-1.04768064-.829776-1.52813217-.3206914-.47621847-.6911271-.9249221-1.097548-1.3312952-.4074793-.40743136-.8551773-.77676524-1.3325102-1.09847727-.480508-.32594509-.9948844-.60426833-1.5283118-.83073667-.5440113-.22858487-1.1134239-.4063731-1.6913036-.52384032-.5926971-.12170028-1.2023285-.18413781-1.8119598-.18413781-.6106897 0-1.2203211.06243753-1.8130182.18413781-.5778797.11746722-1.1472923.29525545-1.6913036.52384032-.5334274.22646834-1.0478038.50479158-1.5293702.83073667-.4762745.32171203-.9239725.69104591-1.3314518 1.09847727-.4064209.4063731-.7757982.85507673-1.097548 1.3312952-.3249251.48045153-.6053978.99476748-.829776 1.52813217-.2307285.54394732-.4074793 1.11435122-.5260187 1.69216297-.1206562.59156917-.1820427 1.20112881-.1820427 1.81068846 0 .61167617.0613865 1.22123583.1820427 1.81386323.1185394.5778118.2952902 1.1471574.5260187 1.6900465.2243782.5333647.5048509 1.0497971.829776 1.5302487.3217498.4762184.6911271.9228055 1.097548 1.3312952.4074793.406373.8551773.7746487 1.3314518 1.097419.4815664.3248868.9959428.6042683 1.5293702.8296784.5440113.2307014 1.1134239.4063731 1.6913036.5238403.5926971.1227585 1.2023285.1841378 1.8130182.1841378.6096313 0 1.2192627-.0613793 1.8119598-.1841378.5778797-.1174672 1.1472923-.2931389 1.6913036-.5238403.5334274-.2254101 1.0478038-.5047916 1.5283118-.8296784.4773329-.3227703.9250309-.691046 1.3325102-1.097419.4064209-.4084897.7768566-.8550768 1.097548-1.3312952.3249251-.4804516.6053978-.996884.829776-1.5302487.2296701-.5428891.4074793-1.1122347.5260187-1.6900465.1206562-.5926274.1820427-1.20218706.1820427-1.81386323 0-.60955965-.0613865-1.21911929-.1820427-1.81068846z" fill-rule="evenodd" transform="translate(-78)"/></svg>