<svg height="15" viewBox="0 0 18 15" width="18" xmlns="http://www.w3.org/2000/svg"><path d="m18 3.77573131c-.661384.30119177-1.3734812.50487541-2.1204437.59588299.7628103-.468039 1.3481246-1.21018418 1.6238774-2.09425785-.7142102.43336944-1.5034337.74864572-2.3465399.9176598-.6719493-.73564464-1.6323296-1.19501625-2.6951928-1.19501625-2.0380349 0-3.69149498 1.69555796-3.69149498 3.78656555 0 .29685807.03169572.58504875.09508717.8624052-3.06920233-.15817985-5.78975172-1.66413868-7.61225568-3.95774648-.31801374.56121343-.49973587 1.21235103-.49973587 1.90574214 0 1.31310943.65187533 2.4723727 1.64289487 3.15167931-.60433175-.0184182-1.17485472-.19068256-1.67353407-.4723727v.04658722c0 1.83531961 1.27311146 3.36619716 2.96354992 3.71289276-.30956154.0888407-.63602747.1332611-.97305864.1332611-.2377179 0-.47015319-.0227519-.69519281-.0671723.47015319 1.503792 1.8330692 2.5991333 3.44955098 2.6283857-1.26360275 1.0162514-2.856841 1.6218852-4.58637084 1.6218852-.29793978 0-.59270999-.0173348-.88114105-.0520044 1.63444268 1.0725894 3.57633386 1.6998917 5.66085578 1.6998917 6.79344952 0 10.50713152-5.7692308 10.50713152-10.77356446 0-.16468039-.0031696-.32936078-.0095087-.4907909.7216059-.53412785 1.3481247-1.20043337 1.8415214-1.95991333" fill-rule="evenodd" transform="translate(0 -2)"/></svg>