<?xml version="1.0" encoding="UTF-8" standalone="no"?>
<svg width="84px" height="28px" viewBox="0 0 84 28" version="1.1" xmlns="http://www.w3.org/2000/svg" xmlns:xlink="http://www.w3.org/1999/xlink">
    <!-- Generator: Sketch 41 (35326) - http://www.bohemiancoding.com/sketch -->
    <title>Artboard</title>
    <desc>Created with Sketch.</desc>
    <defs></defs>
    <g id="Page-1" stroke="none" stroke-width="1" fill="none" fill-rule="evenodd">
        <g id="Artboard" fill="#FFFFFF">
            <g id="Group" transform="translate(0.000000, -3.000000)">
                <path d="M1.39566564,18.899998 L7.77585151,12.4999984 C8.57337489,11.6999983 9.17151677,10.4999985 9.17151677,9.29999832 C9.17151677,8.09999835 8.67306478,6.89999837 7.87554141,6.09999847 L1.39566564,12.4999984 C0.598142519,13.2999981 0,14.4999978 0,15.6999984 C0.0996907753,16.9999977 0.598142758,18.099998 1.39566564,18.899998 Z M16.9473669,15.0999982 L10.5671819,21.4999974 C9.76965855,22.2999965 9.17151677,23.4999973 9.17151677,24.6999979 C9.17151677,25.8999986 9.66996875,27.0999974 10.467492,27.8999985 L16.847678,21.4999993 C17.6452005,20.6999991 18.2433431,19.4999994 18.2433431,18.2999997 C18.2433431,17.099998 17.7448912,15.9999977 16.9473669,15.0999982 Z M12.3616093,10.5999984 L10.4674911,12.4999984 L7.77585062,15.1999985 L5.98142427,17.099998 L1.49535643,21.5999978 C0.697833294,22.3999969 0.0996907753,23.5999977 0.0996907753,24.7999983 C0.0996907753,25.999999 0.598142758,27.1999977 1.39566564,27.9999989 L5.88173348,23.4999992 L7.77585151,21.5999997 L10.467492,18.8999999 L12.3616102,16.9999996 L16.9473688,12.3999999 C17.7448912,11.5999998 18.3430339,10.4000001 18.3430339,9.19999985 C18.3430339,7.99999987 17.844582,6.7999999 17.0470596,6 L12.3616093,10.5999984 Z" id="Combined-Shape"></path>
                <text id="Docs" font-family="AktivGrotesk-Bold, Aktiv Grotesk" font-size="23.9256966" font-weight="bold" letter-spacing="-0.897213635">
                    <tspan x="27.9133127" y="25">Doc</tspan>
                    <tspan x="70.9676037" y="25">s</tspan>
                </text>
            </g>
        </g>
    </g>
</svg>