<?xml version="1.0" encoding="UTF-8" standalone="no"?>
<svg width="1281px" height="549px" viewBox="0 0 1281 549" version="1.1" xmlns="http://www.w3.org/2000/svg" xmlns:xlink="http://www.w3.org/1999/xlink">
    <!-- Generator: Sketch 41 (35326) - http://www.bohemiancoding.com/sketch -->
    <title>Artboard</title>
    <desc>Created with Sketch.</desc>
    <defs>
        <rect id="path-1" x="0" y="0" width="1281" height="549"></rect>
    </defs>
    <g id="Page-1" stroke="none" stroke-width="1" fill="none" fill-rule="evenodd">
        <g id="Artboard">
            <g id="pattern">
                <g id="Page-1">
                    <g id="iPad-Pro-Landscape">
                        <g id="pattern">
                            <g id="Rectangle-42">
                                <rect id="path-1" x="0" y="0" width="1281" height="549"></rect>
                            </g>
                            <g id="Page-1-Clipped">
                                <mask id="mask-2" fill="white">
                                    <use xlink:href="#path-1"></use>
                                </mask>
                                <g id="path-1"></g>
                                <g id="Page-1" mask="url(#mask-2)">
                                    <g transform="translate(2.000000, -9.000000)" id="Group">
                                        <g>
                                            <path d="M229,158.113 L229,250.113 C229,254.531 232.582,258.113 237,258.113 L241,258.113 C245.418,258.113 249,254.531 249,250.113 L249,206.113 C249,201.695 252.582,198.113 257,198.113 L261,198.113 C265.418,198.113 269,201.695 269,206.113 L269,230.113 C269,234.531 272.582,238.113 277,238.113 L281,238.113 C285.418,238.113 289,234.531 289,230.113 L289,186.113 C289,181.695 292.582,178.113 297,178.113 L309,178.113" id="Stroke-1" stroke="#FFFFFF" stroke-width="4"></path>
                                            <path d="M474,8.006 L474,13.001 C474,43.929 448.928,69.001 418,69.001 L412,69.001 C381.072,69.001 356,43.929 356,13.001 L356,8.006" id="Stroke-3" stroke="#FFFFFF" stroke-width="4"></path>
                                            <polygon id="Stroke-4" stroke="#FFFFFF" stroke-width="4" points="407 93.002 423 93.002 423 69.002 407 69.002"></polygon>
                                            <path d="M379,109.002 L384.027,95.598 C384.612,94.036 386.105,93.002 387.772,93.002 L440.528,93.002 C442.043,93.002 443.428,93.858 444.106,95.213 L451,109.002" id="Stroke-5" stroke="#FFFFFF" stroke-width="4"></path>
                                            <path d="M365.027,119.597 L368.027,111.597 C368.612,110.036 370.105,109.001 371.772,109.001 L456.528,109.001 C458.043,109.001 459.428,109.857 460.106,111.213 L464.106,119.213 C465.436,121.872 463.502,125.001 460.528,125.001 L368.772,125.001 C365.98,125.001 364.046,122.212 365.027,119.597 L365.027,119.597 Z" id="Stroke-6" stroke="#FFFFFF" stroke-width="4"></path>
                                            <path d="M494,1 L492.168,8.002 C491.405,10.007 490.217,11.846 488.652,13.409 L475.5,26.537 C471.631,30.399 469.204,35.543 469.013,41.002 C468.807,46.916 471.019,52.511 475.188,56.673 C479.307,60.784 484.869,63.002 490.28,63.002 C495.69,63.002 500.947,60.784 505.067,56.672 L505.262,56.477 C506.402,55.339 507,53.99 507,52.381 C507,49.029 504.321,46.117 500.963,46.117 L500.958,46.117 C499.348,46.117 497.805,46.755 496.666,47.891 L496.666,47.892 C493.423,51.13 488.197,51.651 484.599,48.811 C482.261,46.966 481.016,44.201 481.173,41.266 C481.295,38.983 482.363,36.852 483.983,35.235 L497.25,21.992 C501.141,18.108 503.726,13.268 504.785,8.002 L505,0" id="Stroke-7" stroke="#FFFFFF" stroke-width="4"></path>
                                            <path d="M337,5 L337.832,8.002 C338.595,10.007 339.783,11.846 341.348,13.409 L354.5,26.537 C358.369,30.399 360.796,35.543 360.987,41.002 C361.193,46.916 358.981,52.511 354.812,56.673 C350.693,60.784 345.131,63.002 339.72,63.002 C334.31,63.002 329.053,60.784 324.933,56.672 L324.738,56.477 C323.598,55.339 323,53.99 323,52.381 C323,49.029 325.679,46.117 329.037,46.117 L329.042,46.117 C330.652,46.117 332.195,46.755 333.334,47.892 C336.577,51.13 341.803,51.651 345.401,48.811 C347.739,46.966 348.984,44.201 348.827,41.266 C348.705,38.983 347.637,36.852 346.017,35.235 L332.75,21.992 C328.859,18.108 326.274,13.268 325.215,8.002 L325,0" id="Stroke-8" stroke="#FFFFFF" stroke-width="4"></path>
                                            <path d="M364,8.003 L364,9.002 C364,20.835 366.019,27.115 369.591,34" id="Stroke-9" stroke="#FFFFFF" stroke-width="4"></path>
                                            <path d="M356,558.0062 L356,509.0012" id="Stroke-10" stroke="#FFFFFF" stroke-width="4"></path>
                                            <path d="M474,509.0016 L474,558.0066" id="Stroke-11" stroke="#FFFFFF" stroke-width="4"></path>
                                            <path d="M354,493.0016 L476,493.0016 C480.418,493.0016 484,496.5836 484,501.0016 C484,505.4196 480.418,509.0016 476,509.0016 L354,509.0016 C349.582,509.0016 346,505.4196 346,501.0016 C346,496.5836 349.582,493.0016 354,493.0016 L354,493.0016 Z" id="Stroke-12" stroke="#FFFFFF" stroke-width="4"></path>
                                            <path d="M489,562 L492.168,558.002 C492.818,556.293 493.16,554.465 493.167,552.584 C493.197,544.087 485.861,537.002 477.349,537.002 L473.957,537.002 L473.957,525.002 L477.202,525.002 C492.321,525.002 505.045,536.918 505.322,552.007 C505.36,554.046 505.177,556.053 504.785,558.002 L503,563" id="Stroke-13" stroke="#FFFFFF" stroke-width="4"></path>
                                            <path d="M340,562 L337.832,558.002 C337.182,556.293 336.84,554.465 336.833,552.584 C336.803,544.087 344.139,537.002 352.651,537.002 L356.043,537.002 L356.043,525.002 L352.798,525.002 C337.679,525.002 324.955,536.918 324.678,552.007 C324.64,554.046 324.823,556.053 325.215,558.002 L326,563" id="Stroke-14" stroke="#FFFFFF" stroke-width="4"></path>
                                            <polyline id="Stroke-15" stroke="#FFFFFF" stroke-width="4" points="364 529.0016 364 556.0016 364 558.0026"></polyline>
                                            <path d="M364,519.0016 L364,521.0006" id="Stroke-16" stroke="#FFFFFF" stroke-width="4"></path>
                                            <path d="M319.3,238.02 L365.648,284.207 C367.479,286.032 370.447,286.032 372.278,284.207 L437.402,218.993 C438.105,218.292 438.5,217.341 438.5,216.35 L438.5,190.479 C438.5,189.488 438.105,188.537 437.402,187.836 L427.163,177.633 L415.22,165.731 C414.516,165.03 413.562,164.636 412.568,164.636 L387.545,164.636 C386.55,164.636 385.596,165.03 384.893,165.731 L319.3,231.413 C317.469,233.237 317.469,236.195 319.3,238.02 L319.3,238.02 Z" id="Stroke-17" stroke="#FFFFFF" stroke-width="4"></path>
                                            <path d="M419.425,195.151 C416.496,198.07 411.746,198.07 408.817,195.151 C405.887,192.232 405.887,187.499 408.817,184.579 C411.746,181.66 416.496,181.66 419.425,184.579 C422.354,187.499 422.354,192.232 419.425,195.151 L419.425,195.151 Z" id="Stroke-18" stroke="#FFFFFF" stroke-width="4"></path>
                                            <path d="M377.119,193.113 L409,224.884" id="Stroke-19" stroke="#FFFFFF" stroke-width="4"></path>
                                            <path d="M360.267,209.858 L392.148,241.63" id="Stroke-20" stroke="#FFFFFF" stroke-width="4"></path>
                                            <path d="M344,226.342 L375.881,258.113" id="Stroke-21" stroke="#FFFFFF" stroke-width="4"></path>
                                            <path d="M1193,501.0016 L1193,552.0016 C1193,554.2106 1191.21,556.0016 1189,556.0016 L1067,556.0016 C1064.79,556.0016 1063,554.2106 1063,552.0016 L1063,380.002 C1063,377.793 1064.79,376.002 1067,376.002 L1161,376.002" id="Stroke-22" stroke="#FFFFFF" stroke-width="4"></path>
                                            <path d="M1218,463.0016 C1218,485.0926 1200.09,503.0016 1178,503.0016 C1155.91,503.0016 1138,485.0926 1138,463.0016 C1138,440.911 1155.91,423.002 1178,423.002 C1200.09,423.002 1218,440.911 1218,463.0016 L1218,463.0016 Z" id="Stroke-23" stroke="#FFFFFF" stroke-width="4"></path>
                                            <path d="M1210,463.0016 C1210,480.6746 1195.67,495.0016 1178,495.0016 C1160.33,495.0016 1146,480.6746 1146,463.0016 C1146,445.329 1160.33,431.002 1178,431.002 C1195.67,431.002 1210,445.329 1210,463.0016 L1210,463.0016 Z" id="Stroke-24" stroke="#FFFFFF" stroke-width="4"></path>
                                            <path d="M1171.52,440.002 C1172.28,439.79 1173.05,439.614 1173.83,439.476" id="Stroke-25" stroke="#FFFFFF" stroke-width="4"></path>
                                            <path d="M1154.11,463.0016 C1154.11,455.114 1157.93,448.119 1163.83,443.769" id="Stroke-26" stroke="#FFFFFF" stroke-width="4"></path>
                                            <path d="M1193,409.002 L1193,425.03" id="Stroke-27" stroke="#FFFFFF" stroke-width="4"></path>
                                            <path d="M1079,392.002 L1111,392.002" id="Stroke-28" stroke="#FFFFFF" stroke-width="4"></path>
                                            <path d="M1079,408.002 L1142,408.002" id="Stroke-29" stroke="#FFFFFF" stroke-width="4"></path>
                                            <path d="M1079,424.002 L1144,424.002" id="Stroke-30" stroke="#FFFFFF" stroke-width="4"></path>
                                            <path d="M1079,440.002 L1132,440.002" id="Stroke-31" stroke="#FFFFFF" stroke-width="4"></path>
                                            <path d="M1079,456.002 L1127,456.002" id="Stroke-32" stroke="#FFFFFF" stroke-width="4"></path>
                                            <path d="M1079,472.0016 L1128,472.0016" id="Stroke-33" stroke="#FFFFFF" stroke-width="4"></path>
                                            <path d="M1128,488.0016 L1133,488.0016" id="Stroke-34" stroke="#FFFFFF" stroke-width="4"></path>
                                            <path d="M1128,504.0016 L1147,504.0016" id="Stroke-35" stroke="#FFFFFF" stroke-width="4"></path>
                                            <path d="M1128,520.0016 L1177,520.0016" id="Stroke-36" stroke="#FFFFFF" stroke-width="4"></path>
                                            <path d="M1079,536.0016 L1177,536.0016" id="Stroke-37" stroke="#FFFFFF" stroke-width="4"></path>
                                            <path d="M1079,408.002 L1142,408.002" id="Stroke-38" stroke="#FFFFFF" stroke-width="4"></path>
                                            <path d="M1165,408.002 L1193,408.002 L1161,376.002 L1161,404.002 C1161,406.211 1162.79,408.002 1165,408.002 L1165,408.002 Z" id="Stroke-39" stroke="#FFFFFF" stroke-width="4"></path>
                                            <path d="M1221.13,494.8214 L1263.66,537.3444 C1265.22,538.9064 1265.22,541.4394 1263.66,543.0014 L1258,548.6584 C1256.44,550.2204 1253.91,550.2204 1252.34,548.6584 L1209.82,506.1354 L1221.13,494.8214 Z" id="Stroke-40" stroke="#FFFFFF" stroke-width="4"></path>
                                            <path d="M1209.11,488.4575 L1217.6,496.9425" id="Stroke-41" stroke="#FFFFFF" stroke-width="4"></path>
                                            <path d="M1203.46,494.1143 L1211.94,502.5993" id="Stroke-42" stroke="#FFFFFF" stroke-width="4"></path>
                                            <path d="M1240.93,523.1057 L1221.13,503.3067" id="Stroke-43" stroke="#FFFFFF" stroke-width="4"></path>
                                            <polyline id="Stroke-44" stroke="#FFFFFF" stroke-width="4" points="1079 515.0016 1096 503.0016 1100.5 507.5016 1109 499.0016 1115 505.0016"></polyline>
                                            <path d="M1112,520.0016 L1083,520.0016 C1080.79,520.0016 1079,518.2106 1079,516.0016 L1079,492.0016 C1079,489.7926 1080.79,488.0016 1083,488.0016 L1112,488.0016 C1114.21,488.0016 1116,489.7926 1116,492.0016 L1116,516.0016 C1116,518.2106 1114.21,520.0016 1112,520.0016 L1112,520.0016 Z" id="Stroke-45" stroke="#FFFFFF" stroke-width="4"></path>
                                            <path d="M989.625,228.597 L955.108,326.002 L1123.92,326.002 C1125.58,326.002 1127.07,324.98 1127.66,323.433 L1162.92,231.395 C1163.92,228.775 1161.99,225.963 1159.18,225.964 L993.37,226.001 C991.702,226.002 990.21,227.036 989.625,228.597 L989.625,228.597 Z" id="Stroke-46" stroke="#FFFFFF" stroke-width="4"></path>
                                            <path d="M954,325.002 L954,192.002 C954,189.793 955.791,188.002 958,188.002 L1011.63,188.002 C1012.52,188.002 1013.39,188.302 1014.1,188.855 L1027.22,199.149 C1027.92,199.702 1028.79,200.002 1029.69,200.002 L1123,200.002 C1125.21,200.002 1127,201.793 1127,204.002 L1127,224.041" id="Stroke-47" stroke="#FFFFFF" stroke-width="4"></path>
                                            <path d="M963.304,199.002 L990.069,199.002" id="Stroke-48" stroke="#FFFFFF" stroke-width="4"></path>
                                            <path d="M999,199.002 L1001.55,199.002" id="Stroke-49" stroke="#FFFFFF" stroke-width="4"></path>
                                            <path d="M966,295.002 L966,218.002 C966,215.793 967.791,214.002 970,214.002 L1111.11,214.002 C1113.32,214.002 1115.11,215.793 1115.11,218.002 L1115.11,226.002" id="Stroke-50" stroke="#FFFFFF" stroke-width="4"></path>
                                            <path d="M64,374.766 L64,382.001" id="Stroke-51" stroke="#FFFFFF" stroke-width="4"></path>
                                            <path d="M130,447.002 C130,482.8996 100.899,512.0016 65,512.0016 C29.101,512.0016 0,482.8996 0,447.002 C0,411.103 29.101,382.002 65,382.002 C100.899,382.002 130,411.103 130,447.002 L130,447.002 Z" id="Stroke-52" stroke="#FFFFFF" stroke-width="4"></path>
                                            <path d="M7,447.002 C7,415.522 32.52,390.002 64,390.002 C95.48,390.002 121,415.522 121,447.002 C121,478.4816 95.48,504.0016 64,504.0016 C32.52,504.0016 7,478.4816 7,447.002 L7,447.002 Z" id="Stroke-53" stroke="#FFFFFF" stroke-width="4"></path>
                                            <path d="M46.5423,407.885 C47.3323,407.533 48.1343,407.206 48.9493,406.903" id="Stroke-54" stroke="#FFFFFF" stroke-width="4"></path>
                                            <path d="M23.7892,433.046 C26.5832,424.546 32.0282,417.248 39.1452,412.132" id="Stroke-55" stroke="#FFFFFF" stroke-width="4"></path>
                                            <path d="M113,447.002 C113,450.316 110.314,453.002 107,453.002 C103.686,453.002 101,450.316 101,447.002 C101,443.688 103.686,441.002 107,441.002 C110.314,441.002 113,443.688 113,447.002 L113,447.002 Z" id="Stroke-56" stroke="#FFFFFF" stroke-width="4"></path>
                                            <path d="M57.1471,446.149 C57.1471,442.283 60.2811,439.149 64.1471,439.149" id="Stroke-57" stroke="#FFFFFF" stroke-width="4"></path>
                                            <path d="M27,447.002 C27,450.316 24.314,453.002 21,453.002 C17.686,453.002 15,450.316 15,447.002 C15,443.688 17.686,441.002 21,441.002 C24.314,441.002 27,443.688 27,447.002 L27,447.002 Z" id="Stroke-58" stroke="#FFFFFF" stroke-width="4"></path>
                                            <path d="M64,398.002 C67.314,398.002 70,400.688 70,404.002 C70,407.316 67.314,410.002 64,410.002 C60.686,410.002 58,407.316 58,404.002 C58,400.688 60.686,398.002 64,398.002 L64,398.002 Z" id="Stroke-59" stroke="#FFFFFF" stroke-width="4"></path>
                                            <path d="M64,484.0016 C67.314,484.0016 70,486.6876 70,490.0016 C70,493.3156 67.314,496.0016 64,496.0016 C60.686,496.0016 58,493.3156 58,490.0016 C58,486.6876 60.686,484.0016 64,484.0016 L64,484.0016 Z" id="Stroke-60" stroke="#FFFFFF" stroke-width="4"></path>
                                            <path d="M27.4455,468.3146 C26.8825,468.6396 26.1635,468.4466 25.8385,467.8836 C25.5135,467.3216 25.7065,466.6016 26.2695,466.2766 C26.8315,465.9516 27.5515,466.1446 27.8765,466.7076 C28.2005,467.2706 28.0085,467.9896 27.4455,468.3146 L27.4455,468.3146 Z" id="Stroke-61" stroke="#FFFFFF" stroke-width="4"></path>
                                            <path d="M100.803,425.962 C100.24,426.287 99.521,426.094 99.196,425.531 C98.871,424.969 99.064,424.249 99.627,423.924 C100.189,423.599 100.909,423.792 101.234,424.355 C101.558,424.918 101.366,425.637 100.803,425.962 L100.803,425.962 Z" id="Stroke-62" stroke="#FFFFFF" stroke-width="4"></path>
                                            <path d="M85.7313,482.2097 C86.0563,482.7727 85.8633,483.4917 85.3003,483.8167 C84.7383,484.1417 84.0183,483.9487 83.6933,483.3857 C83.3683,482.8237 83.5613,482.1037 84.1243,481.7787 C84.6873,481.4547 85.4063,481.6467 85.7313,482.2097 L85.7313,482.2097 Z" id="Stroke-63" stroke="#FFFFFF" stroke-width="4"></path>
                                            <path d="M100.803,466.2769 C101.366,466.6019 101.558,467.3209 101.234,467.8839 C100.909,468.4469 100.189,468.6399 99.627,468.3149 C99.064,467.9899 98.871,467.2699 99.196,466.7079 C99.521,466.1449 100.24,465.9519 100.803,466.2769 L100.803,466.2769 Z" id="Stroke-64" stroke="#FFFFFF" stroke-width="4"></path>
                                            <path d="M79.9964,446.057 C80.0304,454.893 72.8964,462.0831 64.0604,462.1171 C55.2254,462.1521 48.0344,455.017 48.0004,446.181 C47.9654,437.346 55.1004,430.155 63.9364,430.121 C72.7714,430.087 79.9624,437.221 79.9964,446.057 L79.9964,446.057 Z" id="Stroke-65" stroke="#FFFFFF" stroke-width="4"></path>
                                            <polyline id="Stroke-66" stroke="#FFFFFF" stroke-width="4" points="56 381.002 56 373.002 72 373.002 72 381.002"></polyline>
                                            <path d="M76,373.002 L52,373.002 C47.582,373.002 44,369.42 44,365.002 C44,360.584 47.582,357.002 52,357.002 L76,357.002 C80.418,357.002 84,360.584 84,365.002 C84,369.42 80.418,373.002 76,373.002 L76,373.002 Z" id="Stroke-67" stroke="#FFFFFF" stroke-width="4"></path>
                                            <path d="M731.623,342.002 L766.327,296.021 C768.795,292.509 770.244,288.229 770.244,283.611 C770.244,271.677 760.569,262.002 748.634,262.002 C741.728,262.002 735.578,265.242 731.622,270.286 C727.666,265.242 721.516,262.002 714.609,262.002 C702.675,262.002 693,271.677 693,283.611 C693,288.229 694.449,292.509 696.916,296.021 L731.621,342.002 L731.623,342.002 Z" id="Stroke-68" stroke="#FFFFFF" stroke-width="4"></path>
                                            <path d="M714.609,270.002 C707.105,270.002 701,276.107 701,283.611" id="Stroke-69" stroke="#FFFFFF" stroke-width="4"></path>
                                            <path d="M258,158.002 L48,158.002 C46.582,158.002 43,154.42 43,150.002 L43,22.002 C43,17.584 46.582,14.002 51,14.002 L261,14.002 C265.418,14.002 269,17.584 269,22.002 L269,150.002 C269,154.42 265.418,158.002 258,158.002 L258,158.002 Z" id="Stroke-70" stroke="#FFFFFF" stroke-width="4"></path>
                                            <polygon id="Stroke-71" stroke="#FFFFFF" stroke-width="4" points="55 146.002 257 146.002 257 26.002 55 26.002"></polygon>
                                            <path d="M191,185.002 L121,185.002 C118.791,185.002 117,183.211 117,181.002 C117,178.793 118.791,177.002 121,177.002 L191,177.002 C193.209,177.002 195,178.793 195,181.002 C195,183.211 193.209,185.002 191,185.002 L191,185.002 Z" id="Stroke-72" stroke="#FFFFFF" stroke-width="4"></path>
                                            <polyline id="Stroke-73" stroke="#FFFFFF" stroke-width="4" points="171 57.002 171 46.002 74.9999 46.002 74.9999 112.002 133 112.002"></polyline>
                                            <path d="M175,176.002 L172,158.002" id="Stroke-74" stroke="#FFFFFF" stroke-width="4"></path>
                                            <path d="M136,176.002 L140,158.002" id="Stroke-75" stroke="#FFFFFF" stroke-width="4"></path>
                                            <polygon id="Stroke-76" stroke="#FFFFFF" stroke-width="4" points="83 104.002 97 104.002 97 54.002 83 54.002"></polygon>
                                            <polygon id="Stroke-77" stroke="#FFFFFF" stroke-width="4" points="105 104.002 119 104.002 119 54.002 105 54.002"></polygon>
                                            <polyline id="Stroke-78" stroke="#FFFFFF" stroke-width="4" points="133 104.002 127 104.002 127 54.002 141 54.002 141 57.002"></polyline>
                                            <polyline id="Stroke-79" stroke="#FFFFFF" stroke-width="4" points="149 57.002 149 54.002 163 54.002 163 57.002"></polyline>
                                            <path d="M143,73.002 L235,73.002" id="Stroke-80" stroke="#FFFFFF" stroke-width="4"></path>
                                            <path d="M158,73.002 L158,124.002" id="Stroke-81" stroke="#FFFFFF" stroke-width="4"></path>
                                            <polygon id="Stroke-82" stroke="#FFFFFF" stroke-width="4" points="141 126.002 237 126.002 237 65.002 141 65.002"></polygon>
                                            <path d="M1242.06,353.271 L1242.06,351.644 C1242.06,344.924 1244.32,338.398 1248.47,333.114 L1253.7,326.459 C1254.32,325.665 1254.99,324.912 1255.67,324.165 C1262.6,316.546 1266.62,306.243 1266,295.001 C1264.9,275.059 1248.88,258.776 1228.96,257.373 C1205.56,255.726 1186.06,274.222 1186.06,297.271 C1186.06,307.626 1190,317.062 1196.45,324.165 C1197.13,324.912 1197.81,325.665 1198.43,326.459 L1203.66,333.114 C1207.81,338.398 1210.06,344.924 1210.06,351.644 L1210.06,353.271 C1210.06,356.585 1212.75,359.271 1216.06,359.271 L1236.06,359.271 C1239.38,359.271 1242.06,356.585 1242.06,353.271 L1242.06,353.271 Z" id="Stroke-83" stroke="#FFFFFF" stroke-width="4"></path>
                                            <path d="M1214.06,267.578 C1213.39,267.852 1212.72,268.149 1212.06,268.47 C1211.38,268.801 1210.72,269.156 1210.06,269.537 M1202.82,275.271 C1197.16,281.231 1194.06,288.968 1194.06,297.271" id="Stroke-84" stroke="#FFFFFF" stroke-width="4"></path>
                                            <path d="M1213.06,359.271 L1213.06,367.271 C1213.06,371.689 1216.64,375.271 1221.06,375.271 L1231.06,375.271 C1235.48,375.271 1239.06,371.689 1239.06,367.271 L1239.06,359.271" id="Stroke-85" stroke="#FFFFFF" stroke-width="4"></path>
                                            <path d="M1241.06,367.271 L1211.06,367.271" id="Stroke-86" stroke="#FFFFFF" stroke-width="4"></path>
                                            <path d="M430,421.508 L430,412.495 C430,410.565 428.436,409.001 426.507,409.001 L425.455,409.001 C423.919,409.001 422.59,407.989 422.115,406.528 C421.572,404.856 420.902,403.241 420.116,401.695 C419.421,400.326 419.643,398.672 420.729,397.586 L421.471,396.844 C422.835,395.48 422.835,393.268 421.471,391.904 L415.098,385.53 C413.733,384.166 411.522,384.166 410.157,385.53 L409.415,386.273 C408.329,387.358 406.675,387.581 405.307,386.885 C403.76,386.099 402.145,385.43 400.473,384.886 C399.012,384.411 398,383.082 398,381.546 L398,380.495 C398,378.565 396.436,377.001 394.507,377.001 L385.493,377.001 C383.564,377.001 382,378.565 382,380.495 L382,381.546 C382,383.082 380.988,384.411 379.527,384.886 C377.855,385.43 376.24,386.099 374.693,386.885 C373.325,387.581 371.671,387.358 370.585,386.273 L369.843,385.53 C368.478,384.166 366.267,384.166 364.902,385.53 L358.529,391.904 C357.165,393.268 357.165,395.48 358.529,396.844 L359.271,397.586 C360.357,398.672 360.579,400.326 359.884,401.695 C359.098,403.241 358.428,404.856 357.885,406.528 C357.41,407.989 356.081,409.001 354.545,409.001 L353.493,409.001 C351.564,409.001 350,410.565 350,412.495 L350,421.508 C350,423.437 351.564,425.001 353.493,425.001 L354.545,425.001 C356.081,425.001 357.41,426.014 357.885,427.475 C358.428,429.147 359.098,430.762 359.884,432.308 C360.579,433.677 360.357,435.331 359.271,436.416 L358.529,437.159 C357.165,438.523 357.165,440.735 358.529,442.099 L364.902,448.472 C366.267,449.837 368.478,449.837 369.843,448.472 L370.585,447.73 C371.671,446.644 373.325,446.422 374.693,447.118 C376.24,447.903 377.855,448.573 379.527,449.116 C380.988,449.591 382,450.92 382,452.457 L382,453.508 C382,455.437 383.564,457.001 385.493,457.001 L394.507,457.001 C396.436,457.001 398,455.437 398,453.508 L398,452.457 C398,450.92 399.012,449.591 400.473,449.116 C402.145,448.573 403.76,447.903 405.307,447.118 C406.675,446.422 408.329,446.644 409.415,447.73 L410.157,448.472 C411.522,449.837 413.733,449.837 415.098,448.472 L421.471,442.099 C422.835,440.735 422.835,438.523 421.471,437.159 L420.729,436.416 C419.643,435.331 419.421,433.677 420.116,432.308 C420.902,430.762 421.572,429.147 422.115,427.475 C422.59,426.014 423.919,425.001 425.455,425.001 L426.507,425.001 C428.436,425.001 430,423.437 430,421.508 L430,421.508 Z" id="Stroke-87" stroke="#FFFFFF" stroke-width="4"></path>
                                            <path d="M407.778,417.002 C407.778,426.82 399.819,434.78 390,434.78 C380.182,434.78 372.222,426.82 372.222,417.002 C372.222,407.184 380.182,399.224 390,399.224 C399.819,399.224 407.778,407.184 407.778,417.002 L407.778,417.002 Z" id="Stroke-88" stroke="#FFFFFF" stroke-width="4"></path>
                                            <path d="M381.111,393.747 C381.978,393.416 382.868,393.131 383.778,392.897" id="Stroke-89" stroke="#FFFFFF" stroke-width="4"></path>
                                            <path d="M365.111,417.002 C365.111,408.534 369.34,401.053 375.802,396.557" id="Stroke-90" stroke="#FFFFFF" stroke-width="4"></path>
                                            <path d="M453,276.002 L645,276.002 C647.209,276.002 649,274.211 649,272.002 L649,264.002 C649,261.793 647.209,260.002 645,260.002 L453,260.002 C450.791,260.002 449,261.793 449,264.002 L449,272.002 C449,274.211 450.791,276.002 453,276.002 L453,276.002 Z" id="Stroke-91" stroke="#FFFFFF" stroke-width="4"></path>
                                            <path d="M641,276.002 L641,380.002 C641,382.211 639.209,384.002 637,384.002 L461,384.002 C458.791,384.002 457,382.211 457,380.002 L457,276.002" id="Stroke-92" stroke="#FFFFFF" stroke-width="4"></path>
                                            <path d="M553,384.002 L553,404.002" id="Stroke-93" stroke="#FFFFFF" stroke-width="4"></path>
                                            <path d="M545,404.002 L545,384.002" id="Stroke-94" stroke="#FFFFFF" stroke-width="4"></path>
                                            <path d="M623,278.002 L623,338.002" id="Stroke-95" stroke="#FFFFFF" stroke-width="4"></path>
                                            <path d="M629,345.002 C629,348.316 626.314,351.002 623,351.002 C619.686,351.002 617,348.316 617,345.002 C617,341.688 619.686,339.002 623,339.002 C626.314,339.002 629,341.688 629,345.002 L629,345.002 Z" id="Stroke-96" stroke="#FFFFFF" stroke-width="4"></path>
                                            <path d="M467,268.002 L511,268.002" id="Stroke-97" stroke="#FFFFFF" stroke-width="4"></path>
                                            <path d="M457,268.002 L459,268.002" id="Stroke-98" stroke="#FFFFFF" stroke-width="4"></path>
                                            <path d="M581,412.002 L517,412.002 C514.791,412.002 513,410.211 513,408.002 C513,405.793 514.791,404.002 517,404.002 L581,404.002 C583.209,404.002 585,405.793 585,408.002 C585,410.211 583.209,412.002 581,412.002 L581,412.002 Z" id="Stroke-99" stroke="#FFFFFF" stroke-width="4"></path>
                                            <path d="M478.768,354.556 L491.512,333.317" id="Stroke-100" stroke="#FFFFFF" stroke-width="4"></path>
                                            <path d="M502.146,326.738 L523.746,319.114" id="Stroke-101" stroke="#FFFFFF" stroke-width="4"></path>
                                            <path d="M535.156,311.942 L556,292.002" id="Stroke-102" stroke="#FFFFFF" stroke-width="4"></path>
                                            <path d="M521,345.002 L573,345.002" id="Stroke-103" stroke="#FFFFFF" stroke-width="4"></path>
                                            <path d="M521,353.002 L583,353.002" id="Stroke-104" stroke="#FFFFFF" stroke-width="4"></path>
                                            <path d="M521,361.002 L563,361.002" id="Stroke-105" stroke="#FFFFFF" stroke-width="4"></path>
                                            <path d="M570,305.002 L593,305.002" id="Stroke-106" stroke="#FFFFFF" stroke-width="4"></path>
                                            <path d="M570,313.002 L603,313.002" id="Stroke-107" stroke="#FFFFFF" stroke-width="4"></path>
                                            <path d="M473,294.002 L496,294.002" id="Stroke-108" stroke="#FFFFFF" stroke-width="4"></path>
                                            <path d="M473,302.002 L506,302.002" id="Stroke-109" stroke="#FFFFFF" stroke-width="4"></path>
                                            <path d="M570,321.002 L583,321.002" id="Stroke-110" stroke="#FFFFFF" stroke-width="4"></path>
                                            <path d="M481.483,356.619 C482.757,359.677 481.311,363.189 478.253,364.463 C475.195,365.737 471.683,364.291 470.409,361.233 C469.135,358.175 470.581,354.663 473.639,353.389 C476.697,352.115 480.209,353.561 481.483,356.619 L481.483,356.619 Z" id="Stroke-111" stroke="#FFFFFF" stroke-width="4"></path>
                                            <path d="M501.76,330.403 C500.945,333.614 497.68,335.556 494.469,334.74 C491.258,333.925 489.317,330.661 490.132,327.45 C490.947,324.239 494.212,322.297 497.423,323.112 C500.634,323.928 502.575,327.192 501.76,330.403 L501.76,330.403 Z" id="Stroke-112" stroke="#FFFFFF" stroke-width="4"></path>
                                            <path d="M535.854,315.88 C536.432,319.142 534.255,322.255 530.993,322.833 C527.73,323.411 524.617,321.234 524.04,317.972 C523.462,314.709 525.639,311.596 528.901,311.019 C532.163,310.441 535.276,312.618 535.854,315.88 L535.854,315.88 Z" id="Stroke-113" stroke="#FFFFFF" stroke-width="4"></path>
                                            <path d="M1001.15,433.309 C1001.1,433.309 1001.05,433.313 1001,433.313 C999.11,408.529 978.421,389.001 953.154,389.001 C933.112,389.001 915.947,401.289 908.76,418.738 C907.575,418.61 906.373,418.54 905.154,418.54 C886.801,418.54 871.923,433.418 871.923,451.771 C871.923,470.1233 886.801,485.0013 905.154,485.0013 L1001.15,485.0013 C1015.43,485.0013 1027,473.4303 1027,459.1553 C1027,444.881 1015.43,433.309 1001.15,433.309 L1001.15,433.309 Z" id="Stroke-114" stroke="#FFFFFF" stroke-width="4"></path>
                                            <path d="M897.462,427.739 C888.774,430.526 882.123,437.903 880.375,447.001 M946.462,397.002 L944.218,398.001 M937.9,400.002 C929.819,403.323 922.968,409.248 918.505,417.001 C917.627,418.527 916.842,420.124 916.158,421.785" id="Stroke-115" stroke="#FFFFFF" stroke-width="4"></path>
                                            <path d="M986.461,459.0016 C986.461,450.165 993.624,443.002 1002.46,443.002" id="Stroke-116" stroke="#FFFFFF" stroke-width="4"></path>
                                            <path d="M1201,36.002 L1245,36.002 C1253.84,36.002 1261,43.165 1261,52.002 L1261,176.002 C1261,184.839 1253.84,192.002 1245,192.002 L1201,192.002 C1192.16,192.002 1185,184.839 1185,176.002 L1185,52.002 C1185,43.165 1192.16,36.002 1201,36.002 L1201,36.002 Z" id="Stroke-117" stroke="#FFFFFF" stroke-width="4"></path>
                                            <path d="M1185,60.002 L1260,60.002" id="Stroke-118" stroke="#FFFFFF" stroke-width="4"></path>
                                            <path d="M1185,168.002 L1260,168.002" id="Stroke-119" stroke="#FFFFFF" stroke-width="4"></path>
                                            <path d="M1227,180.002 C1227,182.211 1225.21,184.002 1223,184.002 C1220.79,184.002 1219,182.211 1219,180.002 C1219,177.793 1220.79,176.002 1223,176.002 C1225.21,176.002 1227,177.793 1227,180.002 L1227,180.002 Z" id="Stroke-120" stroke="#FFFFFF" stroke-width="4"></path>
                                            <path d="M1229,48.002 L1217,48.002" id="Stroke-121" stroke="#FFFFFF" stroke-width="4"></path>
                                            <path d="M1238,117.002 C1238,126.391 1230.39,134.002 1221,134.002 C1211.61,134.002 1204,126.391 1204,117.002 C1204,107.613 1211.61,100.002 1221,100.002 C1224.31,100.002 1227.39,100.945 1230,102.577" id="Stroke-122" stroke="#FFFFFF" stroke-width="4"></path>
                                            <polyline id="Stroke-123" stroke="#FFFFFF" stroke-width="4" points="1213.5 114.502 1222 123.002 1242 103.002"></polyline>
                                            <path d="M1193,80.002 L1193,98.002" id="Stroke-124" stroke="#FFFFFF" stroke-width="4"></path>
                                            <path d="M1193,70.002 L1193,72.001" id="Stroke-125" stroke="#FFFFFF" stroke-width="4"></path>
                                            <path d="M862,382.113 L862,398.113" id="Stroke-126" stroke="#FFFFFF" stroke-width="4"></path>
                                            <path d="M854,390.113 L870,390.113" id="Stroke-127" stroke="#FFFFFF" stroke-width="4"></path>
                                            <path d="M128,343.002 L128,359.002" id="Stroke-128" stroke="#FFFFFF" stroke-width="4"></path>
                                            <path d="M120,351.002 L136,351.002" id="Stroke-129" stroke="#FFFFFF" stroke-width="4"></path>
                                            <path d="M389,321.002 L389,337.002" id="Stroke-130" stroke="#FFFFFF" stroke-width="4"></path>
                                            <path d="M381,329.002 L397,329.002" id="Stroke-131" stroke="#FFFFFF" stroke-width="4"></path>
                                            <path d="M476,440.002 L476,456.002" id="Stroke-132" stroke="#FFFFFF" stroke-width="4"></path>
                                            <path d="M468,448.002 L484,448.002" id="Stroke-133" stroke="#FFFFFF" stroke-width="4"></path>
                                            <path d="M1023,363.113 L1023,379.113" id="Stroke-134" stroke="#FFFFFF" stroke-width="4"></path>
                                            <path d="M1015,371.113 L1031,371.113" id="Stroke-135" stroke="#FFFFFF" stroke-width="4"></path>
                                            <path d="M516,106.002 L516,122.002" id="Stroke-136" stroke="#FFFFFF" stroke-width="4"></path>
                                            <path d="M508,114.002 L524,114.002" id="Stroke-137" stroke="#FFFFFF" stroke-width="4"></path>
                                            <path d="M496,216.002 L496,232.002" id="Stroke-138" stroke="#FFFFFF" stroke-width="4"></path>
                                            <path d="M488,224.002 L504,224.002" id="Stroke-139" stroke="#FFFFFF" stroke-width="4"></path>
                                            <path d="M913,176.002 L913,192.002" id="Stroke-140" stroke="#FFFFFF" stroke-width="4"></path>
                                            <path d="M905,184.002 L921,184.002" id="Stroke-141" stroke="#FFFFFF" stroke-width="4"></path>
                                            <path d="M139,513.0016 L139,529.0016" id="Stroke-142" stroke="#FFFFFF" stroke-width="4"></path>
                                            <path d="M131,521.0016 L147,521.0016" id="Stroke-143" stroke="#FFFFFF" stroke-width="4"></path>
                                            <path d="M1131,77.002 L1074,77.002 C1065.16,77.002 1058,84.165 1058,93.002 L1058,119.002 C1058,127.839 1065.16,135.002 1074,135.002 L1078,135.002 L1078,145.345 C1078,148.909 1082.31,150.693 1084.83,148.174 L1098,135.002 L1131,135.002 C1139.84,135.002 1147,127.839 1147,119.002 L1147,93.002 C1147,84.165 1139.84,77.002 1131,77.002 L1131,77.002 Z" id="Stroke-144" stroke="#FFFFFF" stroke-width="4"></path>
                                            <path d="M1077,94.002 L1105,94.002" id="Stroke-145" stroke="#FFFFFF" stroke-width="4"></path>
                                            <path d="M1077,106.002 L1125,106.002" id="Stroke-146" stroke="#FFFFFF" stroke-width="4"></path>
                                            <path d="M1077,118.002 L1115,118.002" id="Stroke-147" stroke="#FFFFFF" stroke-width="4"></path>
                                            <polyline id="Stroke-148" stroke="#FFFFFF" stroke-width="4" points="820 437.002 835 449.002 820 449.002"></polyline>
                                            <polyline id="Stroke-149" stroke="#FFFFFF" stroke-width="4" points="691 435.002 675 449.002 691 449.002"></polyline>
                                            <path d="M707,420.002 L737,420.002" id="Stroke-150" stroke="#FFFFFF" stroke-width="4"></path>
                                            <path d="M707,436.002 L803,436.002" id="Stroke-151" stroke="#FFFFFF" stroke-width="4"></path>
                                            <path d="M707,452.002 L803,452.002" id="Stroke-152" stroke="#FFFFFF" stroke-width="4"></path>
                                            <path d="M719,468.0016 L791,468.0016" id="Stroke-153" stroke="#FFFFFF" stroke-width="4"></path>
                                            <path d="M732.333,401.001 L752.43,384.155 C753.916,382.909 756.083,382.909 757.569,384.155 L778.863,402.005" id="Stroke-154" stroke="#FFFFFF" stroke-width="4"></path>
                                            <path d="M683,520.0016 L683,477.0016" id="Stroke-155" stroke="#FFFFFF" stroke-width="4"></path>
                                            <path d="M776,498.4139 L835,449.002 L835,544.0019 C835,546.2109 833.209,548.0019 831,548.0019 L679,548.0019 C676.791,548.0019 675,546.2109 675,544.0019 L675,449.002 L734,498.4139" id="Stroke-156" stroke="#FFFFFF" stroke-width="4"></path>
                                            <path d="M765.171,489.3764 L776,498.2934 L819,462.0014 L819,406.001 C819,403.792 817.21,402.001 815,402.001 L695,402.001 C692.791,402.001 691,403.792 691,406.001 L691,462.0014 L734.001,498.2934 L744.83,489.3764 C750.738,484.5114 759.263,484.5114 765.171,489.3764 L765.171,489.3764 Z" id="Stroke-157" stroke="#FFFFFF" stroke-width="4"></path>
                                            <path d="M775.939,498.487 L833,546.002" id="Stroke-158" stroke="#FFFFFF" stroke-width="4"></path>
                                            <path d="M677,546.0016 L734.061,498.4866" id="Stroke-159" stroke="#FFFFFF" stroke-width="4"></path>
                                            <path d="M899.5,295.251 L895.734,354.251 C895.603,356.359 893.854,358.001 891.742,358.001 L829.5,358.001 C827.388,358.001 825.64,356.359 825.508,354.251 L821.742,295.251" id="Stroke-160" stroke="#FFFFFF" stroke-width="4"></path>
                                            <path d="M819,279.002 L902.242,279.002 C904.549,279.002 906.378,280.949 906.234,283.252 L905.734,291.252 C905.603,293.36 903.854,295.002 901.742,295.002 L819.5,295.002 C817.388,295.002 815.64,293.36 815.508,291.252 L815.008,283.252 C814.864,280.949 816.693,279.002 819,279.002 L819,279.002 Z" id="Stroke-161" stroke="#FFFFFF" stroke-width="4"></path>
                                            <path d="M860,279.251 L860,205.251" id="Stroke-162" stroke="#FFFFFF" stroke-width="4"></path>
                                            <path d="M890,247.251 C890,252.222 885.971,256.251 881,256.251 C876.029,256.251 872,252.222 872,247.251 C872,242.28 876.029,238.251 881,238.251 C885.971,238.251 890,242.28 890,247.251 L890,247.251 Z" id="Stroke-163" stroke="#FFFFFF" stroke-width="4"></path>
                                            <path d="M913,235.251 C913,240.222 908.971,244.251 904,244.251 C899.029,244.251 895,240.222 895,235.251 C895,230.28 899.029,226.251 904,226.251 C908.971,226.251 913,230.28 913,235.251 L913,235.251 Z" id="Stroke-164" stroke="#FFFFFF" stroke-width="4"></path>
                                            <path d="M889,217.251 C889,222.222 884.971,226.251 880,226.251 C875.029,226.251 871,222.222 871,217.251 C871,212.28 875.029,208.251 880,208.251 C884.971,208.251 889,212.28 889,217.251 L889,217.251 Z" id="Stroke-165" stroke="#FFFFFF" stroke-width="4"></path>
                                            <path d="M869,195.251 C869,200.222 864.971,204.251 860,204.251 C855.029,204.251 851,200.222 851,195.251 C851,190.28 855.029,186.251 860,186.251 C864.971,186.251 869,190.28 869,195.251 L869,195.251 Z" id="Stroke-166" stroke="#FFFFFF" stroke-width="4"></path>
                                            <path d="M872,250.251 L860,253.251" id="Stroke-167" stroke="#FFFFFF" stroke-width="4"></path>
                                            <path d="M872,222.251 L860,230.251" id="Stroke-168" stroke="#FFFFFF" stroke-width="4"></path>
                                            <path d="M831.742,302.251 L833.742,342.251" id="Stroke-169" stroke="#FFFFFF" stroke-width="4"></path>
                                            <path d="M896,239.251 L888,243.251" id="Stroke-170" stroke="#FFFFFF" stroke-width="4"></path>
                                            <path d="M830,247.251 C830,252.222 834.029,256.251 839,256.251 C843.971,256.251 848,252.222 848,247.251 C848,242.28 843.971,238.251 839,238.251 C834.029,238.251 830,242.28 830,247.251 L830,247.251 Z" id="Stroke-171" stroke="#FFFFFF" stroke-width="4"></path>
                                            <path d="M807,235.251 C807,240.222 811.029,244.251 816,244.251 C820.971,244.251 825,240.222 825,235.251 C825,230.28 820.971,226.251 816,226.251 C811.029,226.251 807,230.28 807,235.251 L807,235.251 Z" id="Stroke-172" stroke="#FFFFFF" stroke-width="4"></path>
                                            <path d="M831,217.251 C831,222.222 835.029,226.251 840,226.251 C844.971,226.251 849,222.222 849,217.251 C849,212.28 844.971,208.251 840,208.251 C835.029,208.251 831,212.28 831,217.251 L831,217.251 Z" id="Stroke-173" stroke="#FFFFFF" stroke-width="4"></path>
                                            <path d="M848,250.251 L860,253.251" id="Stroke-174" stroke="#FFFFFF" stroke-width="4"></path>
                                            <path d="M848,222.251 L860,230.251" id="Stroke-175" stroke="#FFFFFF" stroke-width="4"></path>
                                            <path d="M824,239.251 L832,243.251" id="Stroke-176" stroke="#FFFFFF" stroke-width="4"></path>
                                            <path d="M640,169.89 L655.644,166.114 C662.45,164.471 669,169.628 669,176.63 L669,207.89" id="Stroke-177" stroke="#FFFFFF" stroke-width="4"></path>
                                            <path d="M550.889,92.388 L575.419,98.843 C582.243,100.639 587,106.809 587,113.866 L587,169.488 C587,177.991 592.691,185.443 600.895,187.681 L620,192.891 L627.771,190.846 C634.388,189.104 639,183.122 639,176.28 L639,126.595 C639,121.913 642.104,117.797 646.606,116.511 L646.631,116.504 C653.33,114.59 660,119.62 660,126.588 C660,133.614 666.772,138.652 673.501,136.634 L690,131.684 L726.288,140.585 C736.1,142.992 743,151.788 743,161.891 L743,170.079 C743,179.522 749.042,187.905 758,190.891" id="Stroke-178" stroke="#FFFFFF" stroke-width="4"></path>
                                            <path d="M719,137.684 L719,112.317 C719,100.472 730.018,91.707 741.56,94.37 L758,98.164" id="Stroke-179" stroke="#FFFFFF" stroke-width="4"></path>
                                            <path d="M727.721,194.871 L709.971,190.185 C704.692,188.835 701,184.079 701,178.63 L701,166.542 C701,161.165 706.096,157.249 711.291,158.635 C714.068,159.375 716,161.889 716,164.763 C716,167.754 718.089,170.338 721.013,170.964 C724.216,171.651 726.505,174.482 726.505,177.758 C726.505,179.302 727.02,180.803 727.968,182.023 L732.403,187.725 C735.045,191.122 731.889,195.937 727.721,194.871 L727.721,194.871 Z" id="Stroke-180" stroke="#FFFFFF" stroke-width="4"></path>
                                            <polyline id="Stroke-181" stroke="#FFFFFF" stroke-width="4" points="566 47.89 566 75.89 575 71.89 584 81.89 584 53.89"></polyline>
                                            <path d="M576.946,184.999 C577.649,191.033 574.662,196.34 570.273,196.851 C565.885,197.363 561.757,192.885 561.054,186.851 C560.35,180.817 563.338,175.51 567.726,174.999 C572.115,174.488 576.243,178.965 576.946,184.999 L576.946,184.999 Z" id="Stroke-182" stroke="#FFFFFF" stroke-width="4"></path>
                                            <path d="M646.631,116.504 L646.631,100.669 C646.631,92.486 651.985,85.267 659.816,82.891 C667.646,80.515 673,73.296 673,65.113 L673,47.891" id="Stroke-183" stroke="#FFFFFF" stroke-width="4"></path>
                                            <path d="M587,147.89 L576.457,145.548 C572.63,144.697 569,147.609 569,151.529 C569,155.671 564.977,158.619 561.027,157.372 L550,153.89" id="Stroke-184" stroke="#FFFFFF" stroke-width="4"></path>
                                            <path d="M620,222.89 L552.901,203.719 C551.184,203.228 550,201.659 550,199.873 L550,48.193 C550,45.535 552.544,43.618 555.099,44.347 L620,62.89 L620,222.89 Z" id="Stroke-185" stroke="#FFFFFF" stroke-width="4"></path>
                                            <polyline id="Stroke-186" stroke="#FFFFFF" stroke-width="4" points="620 62.89 690 42.89 690 202.89 620 222.89"></polyline>
                                            <path d="M690,42.89 L757.099,62.061 C758.816,62.552 760,64.121 760,65.907 L760,217.587 C760,220.245 757.456,222.163 754.901,221.433 L690,202.89" id="Stroke-187" stroke="#FFFFFF" stroke-width="4"></path>
                                            <path d="M690,42.89 L620,62.89" id="Stroke-188" stroke="#FFFFFF" stroke-width="4"></path>
                                            <path d="M573.717,503.2845 L593.665,550.5685" id="Stroke-189" stroke="#FFFFFF" stroke-width="4"></path>
                                            <path d="M573.717,503.2845 L522.739,512.8895" id="Stroke-190" stroke="#FFFFFF" stroke-width="4"></path>
                                            <path d="M538.669,465.2543 C527.903,475.1813 521.362,489.6223 522.05,505.5733 C523.201,532.2663 544.967,553.9293 571.665,554.9623 C599.696,556.0463 623.008,534.8173 625.257,507.3603 C625.449,505.0183 623.616,503.0013 621.266,503.0013 L573.717,503.0013 C573.717,503.0013 552.08,475.3573 544.518,465.7303 C543.079,463.8983 540.381,463.6753 538.669,465.2543 L538.669,465.2543 Z" id="Stroke-191" stroke="#FFFFFF" stroke-width="4"></path>
                                            <path d="M582,444.179 C570.023,444.179 558.997,448.25 550.231,455.084 C550.304,455.297 570.14,480.7102 578.427,491.3222 C579.598,492.8222 582,491.9892 582,490.0872 L582,444.179 Z" id="Stroke-192" stroke="#FFFFFF" stroke-width="4"></path>
                                            <path d="M596,493.0016 L641.673,493.0016 C642.818,493.0016 643.721,492.0426 643.675,490.8996 C642.6,464.0086 620.993,442.402 594.102,441.327 C592.959,441.281 592,442.184 592,443.329 L592,489.0016 C592,491.2106 593.791,493.0016 596,493.0016 L596,493.0016 Z" id="Stroke-193" stroke="#FFFFFF" stroke-width="4"></path>
                                            <path d="M301,501.0016 C301,505.4196 292.493,509.0016 282,509.0016 C271.507,509.0016 263,505.4196 263,501.0016" id="Stroke-194" stroke="#FFFFFF" stroke-width="4"></path>
                                            <path d="M215,501.0016 C215,505.4196 206.493,509.0016 196,509.0016 C185.507,509.0016 177,505.4196 177,501.0016" id="Stroke-195" stroke="#FFFFFF" stroke-width="4"></path>
                                            <path d="M682,342.002 L682,358.002" id="Stroke-196" stroke="#FFFFFF" stroke-width="4"></path>
                                            <path d="M674,350.002 L690,350.002" id="Stroke-197" stroke="#FFFFFF" stroke-width="4"></path>
                                            <path d="M990.227,56.111 C990.991,59.32 991.396,62.669 991.396,66.112 C991.396,72.592 989.963,78.737 987.396,84.247" id="Stroke-198" stroke="#FFFFFF" stroke-width="4"></path>
                                            <path d="M884.182,113.471 C864.469,85.81 864.468,48.419 884.18,20.757" id="Stroke-199" stroke="#FFFFFF" stroke-width="4"></path>
                                            <path d="M1013.61,19.757 C1033.32,47.418 1033.32,84.808 1013.61,112.469" id="Stroke-200" stroke="#FFFFFF" stroke-width="4"></path>
                                            <path d="M994.753,131.329 C967.091,151.042 929.699,151.041 902.038,131.327" id="Stroke-201" stroke="#FFFFFF" stroke-width="4"></path>
                                            <path d="M1012.79,8.002 C1016.26,11.473 1016.26,17.101 1012.79,20.573 L981.368,51.998" id="Stroke-202" stroke="#FFFFFF" stroke-width="4"></path>
                                            <path d="M962.51,33.143 L987.652,8.001" id="Stroke-203" stroke="#FFFFFF" stroke-width="4"></path>
                                            <path d="M934.283,99.082 L902.856,130.509 C899.385,133.98 893.757,133.98 890.285,130.509 L884,124.224 C880.529,120.752 880.529,115.124 884,111.653 L915.427,80.226" id="Stroke-204" stroke="#FFFFFF" stroke-width="4"></path>
                                            <path d="M909.14,8 L934.281,33.141" id="Stroke-205" stroke="#FFFFFF" stroke-width="4"></path>
                                            <path d="M915.427,51.999 L884,20.572 C880.529,17.101 880.529,11.473 884,8.001" id="Stroke-206" stroke="#FFFFFF" stroke-width="4"></path>
                                            <path d="M981.366,80.226 L1012.79,111.653 C1016.26,115.124 1016.26,120.752 1012.79,124.224 L1006.51,130.509 C1003.04,133.98 997.408,133.98 993.937,130.509 L962.51,99.082" id="Stroke-207" stroke="#FFFFFF" stroke-width="4"></path>
                                            <path d="M948.396,31.113 C967.726,31.113 983.396,46.783 983.396,66.113 C983.396,85.443 967.726,101.113 948.396,101.113 C929.066,101.113 913.396,85.443 913.396,66.113 C913.396,46.783 929.066,31.113 948.396,31.113 L948.396,31.113 Z" id="Stroke-208" stroke="#FFFFFF" stroke-width="4"></path>
                                            <path d="M885,34.113 C885.169,33.778 885.341,33.445 885.516,33.113" id="Stroke-209" stroke="#FFFFFF" stroke-width="4"></path>
                                            <path d="M877.396,66.113 C877.396,56.936 879.137,48.165 882.307,40.114" id="Stroke-210" stroke="#FFFFFF" stroke-width="4"></path>
                                            <path d="M902.037,550.899 C929.698,531.185 967.09,531.184 994.752,550.896" id="Stroke-211" stroke="#FFFFFF" stroke-width="4"></path>
                                            <path d="M987.651,558.0016 L993.936,551.7166 C997.408,548.2446 1003.04,548.2446 1006.51,551.7166 L1012.79,558.0016" id="Stroke-212" stroke="#FFFFFF" stroke-width="4"></path>
                                            <path d="M884,558.0016 L890.285,551.7166 C893.757,548.2446 899.385,548.2446 902.856,551.7166 L909.14,557.9996" id="Stroke-213" stroke="#FFFFFF" stroke-width="4"></path>
                                            <path d="M917.397,552.2196 C921.886,550.0376 926.639,548.3146 931.595,547.1126" id="Stroke-214" stroke="#FFFFFF" stroke-width="4"></path>
                                            <path d="M303,501.0016 L261,501.0016 C258.791,501.0016 257,499.2106 257,497.0016 L257,493.0016 C257,490.7926 258.791,489.0016 261,489.0016 L303,489.0016 C305.209,489.0016 307,490.7926 307,493.0016 L307,497.0016 C307,499.2106 305.209,501.0016 303,501.0016 L303,501.0016 Z" id="Stroke-215" stroke="#FFFFFF" stroke-width="4"></path>
                                            <path d="M285,394.002 L261,394.002 C258.791,394.002 257,392.211 257,390.002 L257,386.002 C257,383.793 258.791,382.002 261,382.002 L285,382.002 C287.209,382.002 289,383.793 289,386.002 L289,390.002 C289,392.211 287.209,394.002 285,394.002 L285,394.002 Z" id="Stroke-216" stroke="#FFFFFF" stroke-width="4"></path>
                                            <path d="M283,402.002 L283,394.002" id="Stroke-217" stroke="#FFFFFF" stroke-width="4"></path>
                                            <path d="M233,433.002 L245,433.002" id="Stroke-218" stroke="#FFFFFF" stroke-width="4"></path>
                                            <path d="M233,450.002 L245,450.002" id="Stroke-219" stroke="#FFFFFF" stroke-width="4"></path>
                                            <path d="M263,402.002 L263,394.002" id="Stroke-220" stroke="#FFFFFF" stroke-width="4"></path>
                                            <path d="M245,417.002 L245,465.0016 C245,467.2106 243.209,469.0016 241,469.0016 L237,469.0016 C234.791,469.0016 233,467.2106 233,465.0016 L233,417.002 C233,414.793 234.791,413.002 237,413.002 L241,413.002 C243.209,413.002 245,414.793 245,417.002 L245,417.002 Z" id="Stroke-221" stroke="#FFFFFF" stroke-width="4"></path>
                                            <path d="M263,489.0016 L263,481.0016" id="Stroke-222" stroke="#FFFFFF" stroke-width="4"></path>
                                            <path d="M300,481.0016 L300,489.0016" id="Stroke-223" stroke="#FFFFFF" stroke-width="4"></path>
                                            <path d="M245,419.002 L257,419.002 C261.418,419.002 265,422.584 265,427.002 L265,455.002 C265,459.4196 261.418,463.0016 257,463.0016 L245,463.0016" id="Stroke-224" stroke="#FFFFFF" stroke-width="4"></path>
                                            <path d="M257,463.0016 L257,477.0016 C257,479.2106 258.791,481.0016 261,481.0016 L302.169,481.0016 C304.677,481.0016 306.567,478.7196 306.099,476.2556 L292.618,405.256 C292.259,403.368 290.609,402.002 288.688,402.002 L261,402.002 C258.791,402.002 257,403.793 257,406.002 L257,419.002" id="Stroke-225" stroke="#FFFFFF" stroke-width="4"></path>
                                            <path d="M175,501.0016 L217,501.0016 C219.209,501.0016 221,499.2106 221,497.0016 L221,493.0016 C221,490.7926 219.209,489.0016 217,489.0016 L175,489.0016 C172.791,489.0016 171,490.7926 171,493.0016 L171,497.0016 C171,499.2106 172.791,501.0016 175,501.0016 L175,501.0016 Z" id="Stroke-226" stroke="#FFFFFF" stroke-width="4"></path>
                                            <path d="M193,394.002 L217,394.002 C219.209,394.002 221,392.211 221,390.002 L221,386.002 C221,383.793 219.209,382.002 217,382.002 L193,382.002 C190.791,382.002 189,383.793 189,386.002 L189,390.002 C189,392.211 190.791,394.002 193,394.002 L193,394.002 Z" id="Stroke-227" stroke="#FFFFFF" stroke-width="4"></path>
                                            <path d="M195,402.002 L195,394.002" id="Stroke-228" stroke="#FFFFFF" stroke-width="4"></path>
                                            <path d="M215,402.002 L215,394.002" id="Stroke-229" stroke="#FFFFFF" stroke-width="4"></path>
                                            <path d="M178,481.0016 L178,489.0016" id="Stroke-230" stroke="#FFFFFF" stroke-width="4"></path>
                                            <path d="M215,489.0016 L215,481.0016" id="Stroke-231" stroke="#FFFFFF" stroke-width="4"></path>
                                            <path d="M233,419.002 L221,419.002 C216.582,419.002 213,422.584 213,427.002 L213,455.002 C213,459.4196 216.582,463.0016 221,463.0016 L233,463.0016" id="Stroke-232" stroke="#FFFFFF" stroke-width="4"></path>
                                            <path d="M221,463.0016 L221,477.0016 C221,479.2106 219.209,481.0016 217,481.0016 L175.831,481.0016 C173.323,481.0016 171.433,478.7196 171.901,476.2556 L185.382,405.256 C185.741,403.368 187.391,402.002 189.312,402.002 L217,402.002 C219.209,402.002 221,403.793 221,406.002 L221,419.002" id="Stroke-233" stroke="#FFFFFF" stroke-width="4"></path>
                                            <path d="M189.645,422.001 L190,420.002" id="Stroke-234" stroke="#FFFFFF" stroke-width="4"></path>
                                            <path d="M182,465.0016 L188,431.252" id="Stroke-235" stroke="#FFFFFF" stroke-width="4"></path>
                                            <path d="M295,415.002 C301.627,415.002 307,409.629 307,403.002 L307,313.113 C307,299.858 296.255,289.113 283,289.113 L263,289.113 C249.745,289.113 239,299.858 239,313.113 L239,324.002 C239,337.257 228.255,348.002 215,348.002 L195,348.002 C181.745,348.002 171,358.747 171,372.002 L171,403.002 C171,409.629 176.373,415.002 183,415.002" id="Stroke-236" stroke="#FFFFFF" stroke-width="4"></path>
                                            <path d="M449,192.002 L495,192.002 C503.837,192.002 511,184.839 511,176.002 C511,167.165 503.837,160.002 495,160.002 L448.721,160.002 C445.538,160.002 442.486,161.266 440.235,163.517 L415,188.752" id="Stroke-237" stroke="#FFFFFF" stroke-width="4"></path>
                                            <path d="M25,261.002 L25,301.002 C25,303.211 26.791,305.002 29,305.002 L189,305.002 C191.209,305.002 193,303.211 193,301.002 L193,261.002" id="Stroke-238" stroke="#FFFFFF" stroke-width="4"></path>
                                            <path d="M161.383,232.002 L56.6177,232.002 C55.5797,232.002 54.5827,232.405 53.8367,233.126 L24.9997,261.002 L60.9997,261.002 L86.9997,273.002 L132,273.002 L158,261.002 L193,261.002 L164.163,233.126 C163.417,232.405 162.42,232.002 161.383,232.002 L161.383,232.002 Z" id="Stroke-239" stroke="#FFFFFF" stroke-width="4"></path>
                                            <path d="M128,293.002 L91,293.002 C88.791,293.002 87,291.211 87,289.002 C87,286.793 88.791,285.002 91,285.002 L128,285.002 C130.209,285.002 132,286.793 132,289.002 C132,291.211 130.209,293.002 128,293.002 L128,293.002 Z" id="Stroke-240" stroke="#FFFFFF" stroke-width="4"></path>
                                            <path d="M78.2549,438.889 L88.9589,412.635 C90.1049,409.822 86.5539,407.472 84.4129,409.627 L64.0559,430.127" id="Stroke-241" stroke="#FFFFFF" stroke-width="4"></path>
                                            <path d="M49.2441,452.302 L38.1131,479.6044 C36.9671,482.4174 40.5181,484.7664 42.6591,482.6114 L63.0571,462.0704" id="Stroke-242" stroke="#FFFFFF" stroke-width="4"></path>
                                            <path d="M449,192.002 L441,192.002" id="Stroke-243" stroke="#FFFFFF" stroke-width="4"></path>
                                            <path d="M820,137.113 L820,144.113" id="Stroke-244" stroke="#FFFFFF" stroke-width="4"></path>
                                            <path d="M820,85.113 L820,129.113" id="Stroke-245" stroke="#FFFFFF" stroke-width="4"></path>
                                            <path d="M812,115.113 L812,144.113" id="Stroke-246" stroke="#FFFFFF" stroke-width="4"></path>
                                            <path d="M812,100.113 L812,107.113" id="Stroke-247" stroke="#FFFFFF" stroke-width="4"></path>
                                            <path d="M812,85.113 L812,92.113" id="Stroke-248" stroke="#FFFFFF" stroke-width="4"></path>
                                            <polygon id="Stroke-249" stroke="#FFFFFF" stroke-width="4" points="804 145.113 828 145.113 828 85.113 804 85.113"></polygon>
                                            <path d="M820,53.113 L812,53.113 C807.582,53.113 804,56.695 804,61.113 L804,85.113 L828,85.113 L828,61.113 C828,56.695 824.418,53.113 820,53.113 L820,53.113 Z" id="Stroke-250" stroke="#FFFFFF" stroke-width="4"></path>
                                            <polyline id="Stroke-251" stroke="#FFFFFF" stroke-width="4" points="828 145.113 816 169.113 804 145.113"></polyline>
                                            <path d="M828,69.113 L804,69.113" id="Stroke-252" stroke="#FFFFFF" stroke-width="4"></path>
                                            <path d="M820,77.113 L812,77.113" id="Stroke-253" stroke="#FFFFFF" stroke-width="4"></path>
                                            <path d="M813,163.113 L819,163.113" id="Stroke-254" stroke="#FFFFFF" stroke-width="4"></path>
                                            <polygon id="Stroke-255" stroke="#FFFFFF" stroke-width="4" points="309 184.113 317 184.113 317 172.113 309 172.113"></polygon>
                                            <path d="M317,174.113 L323,174.113" id="Stroke-256" stroke="#FFFFFF" stroke-width="4"></path>
                                            <path d="M317,182.113 L323,182.113" id="Stroke-257" stroke="#FFFFFF" stroke-width="4"></path>
                                        </g>
                                    </g>
                                </g>
                            </g>
                        </g>
                    </g>
                </g>
            </g>
        </g>
    </g>
</svg>