<?xml version="1.0" encoding="UTF-8" standalone="no"?>
<svg width="84px" height="25px" viewBox="0 0 84 25" version="1.1" xmlns="http://www.w3.org/2000/svg" xmlns:xlink="http://www.w3.org/1999/xlink">
    <!-- Generator: Sketch 41 (35326) - http://www.bohemiancoding.com/sketch -->
    <title>Artboard Copy</title>
    <desc>Created with Sketch.</desc>
    <defs></defs>
    <g id="Page-1" stroke="none" stroke-width="1" fill="none" fill-rule="evenodd">
        <g id="Artboard-Copy" fill="#FFFFFF">
            <g id="trello-logo-white" transform="translate(0.000000, 1.000000)">
                <g id="Page-1">
                    <g>
                        <g id="Original-Assets">
                            <g id="Group">
                                <g id="Trello-Logo">
                                    <g id="Trello-Logo---White">
                                        <g id="Logo">
                                            <path d="M67.651504,17.9837494 C66.3683264,18.5106984 65.3557456,20.3312285 63.8157244,21.3659544 C63.7202297,21.4301165 63.6247349,21.4621975 63.5610718,21.4621975 C63.4337455,21.4621975 63.2745876,21.3338734 63.2745876,20.7564152 C63.2745876,18.7673924 63.9112191,17.804962 64.452356,16.3933975 C66.3304191,11.4850025 69.5454086,7.28238987 72.4102507,2.69480506 C72.6330718,2.34191392 72.7603981,1.95694177 72.7603981,1.53988861 C72.7603981,1.18699747 72.6330718,0.898268354 72.4739139,0.545377215 C72.3465876,0.256648101 71.7736191,0 71.1369876,0 C70.7868402,0 70.4685244,0.0320810127 70.0547139,0.0320810127 C68.5586297,0.0320810127 68.2403139,2.24567089 67.8901665,2.82312911 C65.5027981,6.89741772 62.7652823,11.9341367 61.3646928,15.4951291 C61.0575605,16.2934141 60.7258014,17.091699 60.4736327,17.9109908 C59.0895672,18.3149191 58.0526868,20.2762225 56.4307981,21.3659544 C56.3353033,21.4301165 56.2398086,21.4621975 56.1761455,21.4621975 C56.0488191,21.4621975 55.8896612,21.3338734 55.8896612,20.7564152 C55.8896612,18.7673924 56.5262928,17.804962 57.0674297,16.3933975 C58.9454928,11.4850025 62.1604823,7.28238987 65.0253244,2.69480506 C65.2481455,2.34191392 65.3754718,1.95694177 65.3754718,1.53988861 C65.3754718,1.18699747 65.2481455,0.898268354 65.0889876,0.545377215 C64.9616612,0.256648101 64.3886928,0 63.7520612,0 C63.4019139,0 63.0835981,0.0320810127 62.6697876,0.0320810127 C61.1737033,0.0320810127 60.8553876,2.24567089 60.5052402,2.82312911 C58.1178718,6.89741772 55.380356,11.9341367 53.9797665,15.4951291 C53.8684201,15.7845359 53.7538369,16.0739428 53.6409828,16.3643506 C53.6061332,16.3831107 53.5705455,16.4034546 53.5341244,16.4254785 C51.9107139,17.3879089 50.541956,19.0882025 48.5683981,20.243119 C48.1864191,20.4676861 47.0086507,21.3017924 46.0537033,21.3017924 C45.8308823,21.3017924 45.6398928,21.2376304 45.4489033,21.1413873 C45.1624191,21.0130633 44.8759349,20.4035241 44.8759349,20.211038 C44.8759349,20.0506329 44.9077665,20.0185519 45.2260823,19.8260658 C48.0272612,18.1257722 50.3191349,15.6876152 52.2926928,13.2494582 C53.0248191,12.3511899 53.9797665,10.5867342 53.9797665,9.30349367 C53.9797665,8.46938734 53.6932823,7.50695696 52.7065033,7.15406582 C52.0062086,6.89741772 51.2104191,6.76909367 50.5737876,6.76909367 C48.8867139,6.76909367 47.6452823,7.53903797 46.9449876,8.27690127 C46.2320488,9.04397566 45.5424378,9.83162177 44.9017489,10.6469554 C44.2323305,10.0644911 43.2881236,9.81678987 42.3930718,9.81678987 C41.3426297,9.81678987 39.3690718,11.1321114 38.3504612,11.9020557 C38.1913033,12.0303797 38.0958086,12.0945418 38.0321455,12.0945418 C38.0003139,12.0945418 37.9684823,12.0624608 37.9684823,11.9982987 C37.9684823,11.9662177 38.0321455,11.6774886 38.0321455,11.1641924 C38.0321455,10.7150582 37.9366507,10.1376 37.5228402,9.43181772 C37.4273455,9.27141266 36.854377,8.91852152 36.1540823,8.91852152 C35.2946297,8.91852152 34.4988402,9.33557468 34.4988402,9.78470886 C34.4988402,10.105519 34.7853244,10.233843 34.7853244,10.5225722 C34.7853244,10.6829772 34.6579981,11.4208405 34.4670086,12.1266228 C33.9258718,14.1798076 33.2574086,16.2009114 32.5571139,18.2220152 C32.1751349,19.3448506 30.9018718,20.339362 30.9018718,21.5584405 C30.9018718,21.9434127 31.1565244,22.4567089 31.5066718,22.841681 C32.0796402,23.4833013 32.4297876,23.7078684 32.9390928,23.7078684 C33.1619139,23.7078684 33.4165665,23.6437063 33.6393876,23.4512203 C34.1168612,23.0341671 34.3715139,22.6171139 34.4988402,22.0396557 C35.3264612,18.2540962 37.7138297,15.6876152 40.3558507,13.9873215 C41.2471349,13.4098633 42.4567349,12.8003241 42.6158928,12.8003241 C42.7790939,12.8003241 43.0343357,12.8762203 43.2915294,12.9501885 C42.5529855,14.16425 41.9545776,15.4445961 41.5654507,16.8104506 C41.4381244,17.2595848 41.3744612,17.676638 41.3744612,18.1257722 C41.3744612,18.8636354 41.5336191,19.6335797 41.7882718,20.371443 C42.1384191,21.3980354 42.7113876,22.2963038 43.507177,22.713357 C44.9714297,23.4833013 46.0218718,23.9003544 46.9768191,23.9003544 C47.517956,23.9003544 47.9317665,23.8041114 48.3774086,23.5474633 C50.4695987,22.3544483 51.7523281,21.4493641 52.678566,20.6454528 C52.7039631,21.4605492 52.863387,21.9121331 53.4386297,22.5208709 C54.0115981,23.1304101 54.9028823,23.6757873 56.0806507,23.9324354 C56.2716402,23.9645165 56.4626297,23.9965975 56.6536191,23.9965975 C58.0011458,23.9965975 59.297966,22.8927535 60.2979406,21.798486 C60.4137186,22.0372747 60.5819656,22.2652132 60.823556,22.5208709 C61.3965244,23.1304101 62.2878086,23.6757873 63.465577,23.9324354 C63.6565665,23.9645165 63.847556,23.9965975 64.0385455,23.9965975 C65.6170388,23.9965975 67.1259536,22.4819261 68.1696534,21.2422628 C68.517502,21.967377 69.489557,22.6842887 70.6595139,23.2587342 C70.9778297,23.4191392 71.3598086,23.5153823 71.709956,23.5153823 C73.0787139,23.5153823 74.0654928,22.3925468 74.8294507,21.5584405 C76.8030086,19.3769316 77.8852823,16.6821266 78.7129033,13.2815392 C78.7765665,13.0248911 78.8720612,12.9286481 78.9993876,12.9286481 C79.3177033,12.9286481 79.7315139,12.9286481 80.177156,12.8644861 C81.0366086,12.736162 81.7050718,12.4474329 82.5008612,12.3191089 C82.9783349,12.2228658 82.9146718,12.0624608 83.3603139,11.9020557 C83.6786297,11.7737316 83.9332823,11.6454076 83.9332823,11.3245975 C83.9332823,10.7792203 82.9465033,10.201762 81.4504191,10.201762 C80.2726507,10.201762 79.572356,10.2980051 79.0948823,10.2980051 C78.362756,10.2980051 78.1717665,10.073438 77.6942928,8.82227848 C77.6942928,8.82227848 78.1717665,10.073438 77.6942928,8.82227848 C77.5987981,8.56563038 77.5033033,8.43730633 77.2168191,8.18065823 C76.548356,7.6032 75.7207349,7.41071392 75.0522718,7.41071392 C73.4606928,7.41071392 72.0919349,9.04684557 71.1369876,10.4263291 C70.9141665,10.7471392 70.5958507,11.0037873 70.3730297,11.3566785 C69.0617841,13.3389592 67.8063386,15.5743078 67.651504,17.9837494 Z M26.954756,7.05782278 C27.7505455,7.05782278 28.1961876,6.99366076 28.2916823,6.99366076 C28.387177,6.99366076 28.4508402,7.02574177 28.4508402,7.12198481 C28.4508402,7.18614684 28.4190086,7.28238987 28.1961876,7.76360506 C26.2544612,11.9662177 24.9175349,16.2329924 23.7397665,20.9489013 C23.7079349,21.0772253 23.6124402,21.5584405 23.6124402,22.0396557 C23.6124402,22.4887899 23.7397665,22.9700051 24.1854086,23.2266532 C25.0448612,23.7399494 25.745156,23.9645165 26.2226297,23.9645165 C26.9229244,23.9645165 27.2730718,23.5153823 27.2730718,22.777519 C27.2730718,22.1358987 27.3049033,21.4621975 27.4003981,20.9489013 C28.2916823,16.2329924 29.6286086,12.5436759 31.6976612,8.69395443 C32.6844402,6.86533671 32.8117665,6.76909367 32.8117665,6.60868861 C32.8117665,6.54452658 32.7799349,6.44828354 32.7162718,6.35204051 C33.9895349,6.06331139 35.5174507,5.87082532 36.9180402,5.87082532 C37.0771981,5.87082532 37.7138297,6.09539241 37.8093244,6.19163544 C38.0321455,6.41620253 38.2549665,6.64076962 38.6369455,6.64076962 C38.9552612,6.64076962 39.4963981,6.41620253 39.6873876,6.28787848 C40.1330297,5.96706835 40.3558507,5.61417722 40.3558507,5.03671899 C40.3558507,4.49134177 38.3504612,3.14393924 36.9498718,3.14393924 C35.2309665,3.14393924 33.6712191,3.36850633 32.2069665,3.65723544 C31.5703349,3.78555949 29.2784612,4.13845063 27.6232191,4.13845063 C26.0316402,4.13845063 26.1271349,3.91388354 25.4586718,3.91388354 C25.0766928,3.91388354 24.8857033,4.10636962 24.7265455,4.26677468 C24.5673876,4.42717975 24.4718928,5.0688 24.4718928,5.64625823 C24.4718928,5.93498734 24.4718928,6.15955443 24.6310507,6.35204051 C25.1085244,6.92949873 26.0316402,7.05782278 26.954756,7.05782278 C26.954756,7.05782278 26.0316402,7.05782278 26.954756,7.05782278 Z M50.541956,9.65638481 C50.541956,9.94511392 50.4464612,10.1376 50.0644823,10.7471392 C49.6825033,11.3566785 49.8416612,11.3566785 49.3641876,11.9982987 C48.4410718,13.2494582 47.2951349,14.5006177 45.7990507,15.8801013 C45.3852402,16.2650734 45.321577,16.2650734 45.2579139,16.2650734 C45.2260823,16.2650734 45.1624191,16.2329924 45.1624191,16.1688304 C45.1624191,16.0725873 45.1942507,15.9442633 45.5125665,15.270562 C46.4993455,13.1852962 47.7089455,11.8058127 49.0458718,10.4584101 C49.7779981,9.72054684 50.2236402,9.46389873 50.3827981,9.46389873 C50.4782928,9.46389873 50.541956,9.49597975 50.541956,9.65638481 C50.541956,9.65638481 50.541956,9.49597975 50.541956,9.65638481 Z M75.0204402,10.4904911 C75.0522718,10.4904911 75.0841033,10.5225722 75.1159349,10.5867342 C75.1477665,10.6829772 75.2114297,10.7792203 75.3705876,10.9075443 C75.4979139,11.0037873 75.4979139,11.4529215 75.4979139,11.8058127 C75.4979139,14.9176709 73.747177,17.4841519 72.0282718,20.0827139 C71.6462928,20.6601722 71.4234718,20.7564152 71.2324823,20.7564152 C71.0733244,20.7564152 70.8186718,20.339362 70.723177,20.0827139 C70.5958507,19.7298228 70.5640191,19.3127696 70.5640191,19.1523646 C70.5640191,16.6500456 72.919556,12.9286481 74.4793033,10.8754633 C74.733956,10.5225722 74.9249455,10.4904911 75.0204402,10.4904911 C75.0204402,10.4904911 74.9249455,10.4904911 75.0204402,10.4904911 Z" id="Type"></path>
                                            <path d="M2.51210052,3.5443038 C1.12470571,3.5443038 0,4.67842411 0,6.07608926 L0,21.2656829 C0,22.6639494 1.12530239,23.7974684 2.51210052,23.7974684 L17.5835933,23.7974684 C18.970988,23.7974684 20.0956938,22.6633481 20.0956938,21.2656829 L20.0956938,6.07608926 C20.0956938,4.67782275 18.9703914,3.5443038 17.5835933,3.5443038 L2.51210052,3.5443038 Z M12.5595108,6.17721519 C11.8937626,6.17721519 11.354067,6.72124811 11.354067,7.39296687 L11.354067,13.8728559 C11.354067,14.544297 11.8939605,15.0886076 12.5595108,15.0886076 L16.2778098,15.0886076 C16.943558,15.0886076 17.4832536,14.5445747 17.4832536,13.8728559 L17.4832536,7.39296687 C17.4832536,6.72152575 16.9433601,6.17721519 16.2778098,6.17721519 L12.5595108,6.17721519 Z M3.817884,6.17721519 C3.15213577,6.17721519 2.61244019,6.72075032 2.61244019,7.39293016 L2.61244019,18.9361838 C2.61244019,19.6076046 3.15233367,20.1518987 3.817884,20.1518987 L7.53618299,20.1518987 C8.20193122,20.1518987 8.74162679,19.6083636 8.74162679,18.9361838 L8.74162679,7.39293016 C8.74162679,6.72150933 8.20173327,6.17721519 7.53618299,6.17721519 L3.817884,6.17721519 Z" id="Board"></path>
                                        </g>
                                    </g>
                                </g>
                            </g>
                        </g>
                    </g>
                </g>
            </g>
        </g>
    </g>
</svg>